<svg xmlns="http://www.w3.org/2000/svg" viewBox="0 0 64 64">
  <defs>
    <radialGradient id="paper" cx="31" cy="28" r="45" gradientUnits="userSpaceOnUse">
      <stop stop-color="#fff7ed"/>
      <stop offset="0.58" stop-color="#f8fafc"/>
      <stop offset="1" stop-color="#d1d5db"/>
    </radialGradient>
    <linearGradient id="ink" x1="12" y1="8" x2="53" y2="56" gradientUnits="userSpaceOnUse">
      <stop stop-color="#111827"/>
      <stop offset="1" stop-color="#020617"/>
    </linearGradient>
    <linearGradient id="accent" x1="14" y1="12" x2="50" y2="52" gradientUnits="userSpaceOnUse">
      <stop stop-color="#ef4444"/>
      <stop offset="0.48" stop-color="#f59e0b"/>
      <stop offset="1" stop-color="#14b8a6"/>
    </linearGradient>
  </defs>
  <rect width="64" height="64" rx="12" fill="url(#paper)"/>
  <rect x="5.5" y="5.5" width="53" height="53" rx="8.5" fill="none" stroke="#020617" stroke-width="2"/>
  <g fill="none" stroke="url(#ink)" stroke-linecap="square" stroke-linejoin="miter">
    <path d="M32 8 56 32 32 56 8 32Z" stroke-width="2.3"/>
    <path d="M32 14 50 32 32 50 14 32Z" stroke-width="1.6"/>
    <path d="M32 20 44 32 32 44 20 32Z" stroke-width="1.25"/>
    <path d="M32 26 38 32 32 38 26 32Z" stroke-width="1"/>
    <path d="M8 32h48M32 8v48" stroke-width="1.2"/>
    <path d="M15 15 49 49M49 15 15 49" stroke-width="0.9" opacity="0.85"/>
  </g>
  <g fill="none" stroke="url(#accent)" stroke-width="1.45" stroke-linejoin="round">
    <path d="M21 9h22l12 12v22L43 55H21L9 43V21Z"/>
    <path d="M23 23h18v18H23Z" transform="rotate(45 32 32)"/>
    <path d="M18 32c5-10 23-10 28 0-5 10-23 10-28 0Z"/>
  </g>
  <g fill="#020617">
    <circle cx="32" cy="8" r="2.2"/>
    <circle cx="56" cy="32" r="2.2"/>
    <circle cx="32" cy="56" r="2.2"/>
    <circle cx="8" cy="32" r="2.2"/>
    <circle cx="32" cy="32" r="2.7"/>
  </g>
  <g fill="#f97316">
    <circle cx="15" cy="15" r="1.8"/>
    <circle cx="49" cy="15" r="1.8"/>
    <circle cx="49" cy="49" r="1.8"/>
    <circle cx="15" cy="49" r="1.8"/>
  </g>
</svg>
